{"title":"Farinelli.1994.1080p.x265.HEVC.MAjUS","uid":13975025,"size":1418375238,"categoryP":"video","categoryS":"hd___movies","magnet":"?xt=urn:btih:e0ece48c201530766b0dd51d92b8e621ec78fbd2&amp;dn=Farinelli.1994.1080p.x265.HEVC.MAjUS&amp;tr=udp%3A%2F%2Ftracker.leechers-paradise.org%3A6969&amp;tr=udp%3A%2F%2Fzer0day.ch%3A1337&amp;tr=udp%3A%2F%2Fopen.demonii.com%3A1337&amp;tr=udp%3A%2F%2Ftracker.coppersurfer.tk%3A6969&amp;tr=udp%3A%2F%2Fexodus.desync.com%3A6969","seeders":0,"leechers":1,"uploader":"MAjUS-HEVC","files":1,"time":1458644865,"description":"Farinelli, is the artistic name of Carlo Broschi, a young singer in Handel's time. He was castrated in his childhood in order to preserve his voice. During his life he becomes to be a very ...\r\n\r\nVideo\r\nID : 1\r\nFormat : HEVC\r\nFormat/Info : High Efficiency Video Coding\r\nFormat profile :   @Main\r\nCodec ID : V_MPEGH/ISO/HEVC\r\nDuration : 1h 46mn\r\nBit rate : 1 611 Kbps\r\nWidth : 1 920 pixels\r\nHeight : 1 080 pixels\r\nDisplay aspect ratio : 16:9\r\nFrame rate mode : Constant\r\nFrame rate : 25.000 fps\r\nColor space : YUV\r\nChroma subsampling : 4:2:0\r\nBit depth : 8 bits\r\nBits/(Pixel*Frame) : 0.031\r\nStream size : 1.19 GiB (90%)\r\n\r\nAudio\r\nID : 2\r\nFormat : AAC\r\nFormat/Info : Advanced Audio Codec\r\nFormat profile : LC\r\nCodec ID : A_AAC\r\nDuration : 1h 46mn\r\nBit rate : 169 Kbps\r\nChannel(s) : 6 channels\r\nChannel positions : Front: L C R, Side: L R, LFE\r\nSampling rate : 44.1 KHz\r\nFrame rate : 43.066 fps (1024 spf)\r\nCompression mode : Lossy\r\nDelay relative to video : 10ms\r\nStream size : 128 MiB (9%)\r\nDefault : Yes\r\nForced : No\r\n\r\nText\r\nID : 3\r\nFormat : UTF-8\r\nCodec ID : S_TEXT/UTF8\r\nCodec ID/Info : UTF-8 Plain Text\r\nDuration : 1h 42mn\r\nBit rate : 32 bps\r\nCount of elements : 776\r\nStream size : 24.3 KiB (0%)\r\nTitle : Polskie Napisy\r\nLanguage : Polish\r\nDefault : Yes\r\nForced : Yes","torrent":{"xt":"urn:btih:e0ece48c201530766b0dd51d92b8e621ec78fbd2","amp;dn":"Farinelli.1994.1080p.x265.HEVC.MAjUS","amp;tr":["udp%3A%2F%2Ftracker.leechers-paradise.org%3A6969","udp%3A%2F%2Fzer0day.ch%3A1337","udp%3A%2F%2Fopen.demonii.com%3A1337","udp%3A%2F%2Ftracker.coppersurfer.tk%3A6969","udp%3A%2F%2Fexodus.desync.com%3A6969"],"infoHash":"e0ece48c201530766b0dd51d92b8e621ec78fbd2","infoHashBuffer":{"type":"Buffer","data":[224,236,228,140,32,21,48,118,107,13,213,29,146,184,230,33,236,120,251,210]},"announce":[],"urlList":[]}}